<?xml version="1.0" encoding="utf-8" ?>	<!-- Generator: Assembly 2.2 - http://assemblyapp.co -->	<svg version="1.1" xmlns="http://www.w3.org/2000/svg" xmlns:xlink="http://www.w3.org/1999/xlink" width="2048.00" height="2048.00" viewBox="0 0 2048.0 2048.0">		<g id="document" transform="matrix(1,0,0,1,1024.0,1024.0)">			<g>				<g>					<path d="M9.66261e-06,1001.04 C553.206,1001.04 1001.04,553.206 1001.04,3.65864e-13 C1001.04,-553.206 553.206,-1001.04 9.66261e-06,-1001.04 C-553.206,-1001.04 -1001.04,-553.206 -1001.04,3.65864e-13 C-1001.04,553.206 -553.206,1001.04 9.66261e-06,1001.04 Z " fill="#68abb1" fill-opacity="1.00" />					<path d="M9.19608e-06,952.707 C526.496,952.707 952.707,526.496 952.707,0 C952.707,-526.496 526.496,-952.707 9.19608e-06,-952.707 C-526.496,-952.707 -952.707,-526.496 -952.707,0 C-952.707,526.496 -526.496,952.707 9.19608e-06,952.707 Z " fill="#298a91" fill-opacity="1.00" />				</g>				<path d="M-758.364,-0.811364 C-758.364,240.365 -503.025,291.174 -366.214,438.2 C-224.786,590.189 -198.704,755.159 -6.85205,755.159 C200.622,755.159 227.285,570.584 368.052,421.488 C517.757,262.927 751.382,200.476 751.382,-0.811358 C751.382,-233.326 571.738,-201.623 403.583,-389.592 C235.427,-577.561 225.382,-755.159 -6.85205,-755.159 C-250.982,-755.159 -246.458,-540.27 -410.532,-389.592 C-570.493,-242.69 -758.364,-242.626 -758.364,-0.811364 Z " fill="#72aeac" fill-opacity="1.00" />				<path d="M-422.117,-0.453698 C-422.117,134.41 -279.332,162.822 -202.832,245.036 C-123.745,330.028 -109.161,422.276 -1.87946,422.276 C114.138,422.276 129.047,319.063 207.763,235.691 C291.476,147.025 422.117,112.104 422.117,-0.453698 C422.117,-130.473 321.661,-112.745 227.632,-217.855 C133.6,-322.964 127.983,-422.276 -1.87946,-422.276 C-138.394,-422.276 -135.864,-302.113 -227.613,-217.855 C-317.062,-135.709 -422.117,-135.674 -422.117,-0.453698 Z " fill="#fdfcf7" fill-opacity="1.00" />			</g>		</g>	</svg>