<?xml version="1.0" encoding="utf-8" ?>	<!-- Generator: Assembly 2.2 - http://assemblyapp.co -->	<svg version="1.1" xmlns="http://www.w3.org/2000/svg" xmlns:xlink="http://www.w3.org/1999/xlink" width="2048.00" height="1152.00" viewBox="0 0 2048.0 1151.9999914169312">		<g id="document" transform="matrix(1,0,0,1,1024.0,575.9999957084656)">			<g>				<g>					<path d="M-621.172,291.984 C-459.813,291.984 -329.189,161.36 -329.189,0 C-329.189,-161.36 -459.813,-291.984 -621.172,-291.984 C-782.532,-291.984 -913.156,-161.36 -913.156,0 C-913.156,161.36 -782.532,291.984 -621.172,291.984 Z " fill="#68abb1" fill-opacity="1.00" />					<path d="M-621.172,277.886 C-467.604,277.886 -343.286,153.569 -343.286,-1.06581e-13 C-343.286,-153.569 -467.604,-277.886 -621.172,-277.886 C-774.741,-277.886 -899.059,-153.569 -899.059,-1.06581e-13 C-899.059,153.569 -774.741,277.886 -621.172,277.886 Z " fill="#298a91" fill-opacity="1.00" />				</g>				<path d="M-842.373,-0.236659 C-842.373,70.11 -767.895,84.93 -727.99,127.814 C-686.738,172.147 -679.13,220.265 -623.171,220.265 C-562.655,220.265 -554.878,166.428 -513.819,122.94 C-470.153,76.6905 -402.009,58.4752 -402.009,-0.236657 C-402.009,-68.0567 -454.408,-58.8094 -503.455,-113.636 C-552.503,-168.463 -555.433,-220.265 -623.171,-220.265 C-694.379,-220.265 -693.059,-157.586 -740.917,-113.636 C-787.574,-70.7879 -842.373,-70.7694 -842.373,-0.236659 Z " fill="#72aeac" fill-opacity="1.00" />				<path d="M-744.296,-0.132335 C-744.296,39.2047 -702.649,47.4919 -680.334,71.4724 C-657.267,96.2626 -653.012,123.17 -621.721,123.17 C-587.881,123.17 -583.532,93.0647 -560.572,68.7464 C-536.155,42.8845 -498.049,32.6987 -498.049,-0.132335 C-498.049,-38.0565 -527.35,-32.8856 -554.777,-63.5441 C-582.204,-94.2026 -583.842,-123.17 -621.721,-123.17 C-661.539,-123.17 -660.801,-88.1206 -687.563,-63.5441 C-713.653,-39.5838 -744.296,-39.5734 -744.296,-0.132335 Z " fill="#fdfcf7" fill-opacity="1.00" />			</g>			<g>				<path d="M-200.421,-95.3551 C-200.421,-92.284 -200.872,-89.8344 -201.774,-88.0064 C-202.676,-86.1783 -204.102,-84.5087 -206.052,-82.9975 C-208.099,-81.4376 -210.634,-80.4383 -213.656,-79.9995 C-216.679,-79.5608 -220.432,-79.3415 -224.917,-79.3415 L-233.545,-79.3415 L-233.545,-108.663 L-223.382,-108.663 C-220.018,-108.663 -217.069,-108.578 -214.534,-108.407 C-211.999,-108.237 -209.781,-107.761 -207.88,-106.981 C-205.15,-105.86 -203.224,-104.325 -202.103,-102.375 C-200.982,-100.425 -200.421,-98.085 -200.421,-95.3551 Z M-192.963,-66.472 C-186.041,-69.8356 -180.715,-74.0523 -176.986,-79.1221 C-173.257,-84.1919 -171.392,-90.7484 -171.392,-98.7918 C-171.392,-104.642 -172.598,-109.504 -175.012,-113.38 C-177.425,-117.255 -180.678,-120.412 -184.773,-122.849 C-188.819,-125.286 -193.158,-126.871 -197.789,-127.602 C-202.42,-128.333 -207.953,-128.699 -214.388,-128.699 L-261.478,-128.699 L-261.478,-19.8203 L-233.545,-19.8203 L-233.545,-59.7448 L-220.603,-59.7448 L-190.915,-19.8203 L-156.621,-19.8203 L-192.963,-66.472 Z M-98.5724,-41.245 C-100.62,-39.4901 -102.996,-38.0764 -105.702,-37.0039 C-108.407,-35.9315 -111.076,-35.3953 -113.709,-35.3953 C-117.024,-35.3953 -119.461,-35.6268 -121.021,-36.0899 C-122.581,-36.553 -123.921,-37.2721 -125.043,-38.247 C-126.212,-39.222 -126.944,-40.2457 -127.236,-41.3181 C-127.529,-42.3906 -127.675,-43.7799 -127.675,-45.4861 C-127.675,-48.0697 -126.98,-50.1537 -125.591,-51.738 C-124.202,-53.3223 -122.191,-54.5288 -119.558,-55.3575 C-117.413,-56.04 -114.269,-56.6371 -110.126,-57.149 C-105.982,-57.6608 -102.131,-58.063 -98.5724,-58.3555 L-98.5724,-41.245 Z M-98.5724,-19.8203 L-72.468,-19.8203 L-72.468,-75.6854 C-72.468,-85.5324 -75.795,-92.7593 -82.4491,-97.366 C-89.1032,-101.973 -99.913,-104.276 -114.879,-104.276 C-121.167,-104.276 -127.443,-103.776 -133.707,-102.777 C-139.972,-101.778 -144.493,-100.912 -147.272,-100.181 L-147.272,-80.3652 L-144.859,-80.3652 C-142.714,-81.1939 -139.179,-82.376 -134.256,-83.9116 C-129.332,-85.4471 -124.701,-86.2149 -120.363,-86.2149 C-113.148,-86.2149 -107.688,-85.3496 -103.983,-83.6191 C-100.279,-81.8885 -98.4262,-78.7565 -98.4262,-74.2229 L-98.4262,-73.7842 C-106.177,-73.3455 -113.66,-72.663 -120.875,-71.7368 C-128.089,-70.8106 -134.134,-69.2506 -139.009,-67.057 C-143.932,-64.8633 -147.735,-61.8653 -150.416,-58.063 C-153.097,-54.2607 -154.437,-49.3615 -154.437,-43.3655 C-154.437,-35.8584 -151.805,-29.6918 -146.54,-24.8657 C-141.276,-20.0397 -134.743,-17.6267 -126.944,-17.6267 C-123.629,-17.6267 -120.582,-17.907 -117.803,-18.4676 C-115.025,-19.0282 -112.344,-19.8934 -109.76,-21.0634 C-107.908,-21.9409 -105.933,-23.1352 -103.837,-24.6464 C-101.741,-26.1575 -99.9861,-27.4494 -98.5724,-28.5218 L-98.5724,-19.8203 Z M31.7208,-73.2723 C31.7208,-83.5581 29.2225,-91.2847 24.2258,-96.4519 C19.2292,-101.619 12.2948,-104.203 3.42268,-104.203 C-1.84209,-104.203 -6.63156,-103.228 -10.9457,-101.278 C-15.2599,-99.3281 -19.7569,-96.5251 -24.4367,-92.869 L-24.4367,-101.936 L-50.7606,-101.936 L-50.7606,-19.8203 L-24.4367,-19.8203 L-24.4367,-78.0253 C-21.5606,-79.7314 -18.8916,-80.9745 -16.4299,-81.7545 C-13.9681,-82.5344 -11.5429,-82.9244 -9.15427,-82.9244 C-5.79066,-82.9244 -3.17047,-82.5101 -1.29367,-81.6813 C0.583118,-80.8526 2.00899,-79.5364 2.98395,-77.7328 C3.81266,-76.1728 4.39764,-73.7476 4.73887,-70.4572 C5.08011,-67.1667 5.25072,-63.864 5.25072,-60.5492 L5.25072,-19.8203 L31.7208,-19.8203 L31.7208,-73.2723 Z M133.277,-133.598 L106.953,-133.598 L106.953,-98.6456 C103.639,-100.254 100.409,-101.583 97.2647,-102.631 C94.1205,-103.679 90.0866,-104.203 85.1631,-104.203 C80.4345,-104.203 75.706,-103.191 70.9774,-101.168 C66.2489,-99.1453 62.2272,-96.3057 58.9124,-92.6496 C55.4025,-88.7985 52.6361,-84.1797 50.613,-78.793 C48.59,-73.4064 47.5785,-67.2276 47.5785,-60.2567 C47.5785,-47.1922 50.5765,-36.809 56.5725,-29.1068 C62.5684,-21.4046 70.5631,-17.5536 80.5564,-17.5536 C85.7237,-17.5536 90.2816,-18.431 94.2302,-20.1859 C98.1787,-21.9409 102.42,-24.6707 106.953,-28.3756 L106.953,-19.8203 L133.277,-19.8203 L133.277,-133.598 Z M106.953,-42.4881 C104.906,-41.0256 102.542,-39.8435 99.8605,-38.9417 C97.1794,-38.0398 94.6445,-37.5889 92.2559,-37.5889 C86.1137,-37.5889 81.6532,-39.4048 78.8746,-43.0365 C76.096,-46.6682 74.7067,-52.5058 74.7067,-60.5492 C74.7067,-68.2026 76.4372,-74.1864 79.8983,-78.5005 C83.3594,-82.8147 88.551,-84.9718 95.4732,-84.9718 C97.1794,-84.9718 99.0562,-84.8012 101.104,-84.46 C103.151,-84.1187 105.101,-83.5581 106.953,-82.7782 L106.953,-42.4881 Z M239.587,-60.8416 C239.587,-74.3448 235.674,-84.9962 227.85,-92.7959 C220.026,-100.596 208.948,-104.495 194.617,-104.495 C180.48,-104.495 169.451,-100.62 161.529,-92.869 C153.607,-85.1181 149.647,-74.4423 149.647,-60.8416 C149.647,-47.3385 153.583,-36.6993 161.456,-28.924 C169.329,-21.1487 180.382,-17.2611 194.617,-17.2611 C208.851,-17.2611 219.905,-21.1487 227.777,-28.924 C235.65,-36.6993 239.587,-47.3385 239.587,-60.8416 Z M207.194,-40.8794 C205.682,-38.9782 203.842,-37.6255 201.673,-36.8211 C199.504,-36.0168 197.225,-35.6146 194.836,-35.6146 C192.057,-35.6146 189.583,-36.0534 187.414,-36.9308 C185.245,-37.8083 183.38,-39.1976 181.82,-41.0988 C180.212,-43.0974 178.993,-45.742 178.164,-49.0325 C177.336,-52.323 176.921,-56.2106 176.921,-60.6954 C176.921,-65.7164 177.396,-69.8844 178.347,-73.1992 C179.298,-76.5141 180.577,-79.1221 182.186,-81.0233 C183.99,-83.0707 185.879,-84.4356 187.853,-85.1181 C189.827,-85.8005 192.082,-86.1418 194.617,-86.1418 C197.152,-86.1418 199.516,-85.7274 201.709,-84.8987 C203.903,-84.07 205.78,-82.6563 207.34,-80.6576 C208.9,-78.7077 210.118,-76.0997 210.996,-72.8336 C211.873,-69.5675 212.312,-65.5214 212.312,-60.6954 C212.312,-55.4794 211.886,-51.3967 211.032,-48.4475 C210.179,-45.4983 208.9,-42.9756 207.194,-40.8794 Z M336.244,-78.0253 C339.266,-79.7802 341.825,-81.0354 343.922,-81.791 C346.018,-82.5466 348.163,-82.9244 350.356,-82.9244 C353.622,-82.9244 356.157,-82.5222 357.961,-81.7179 C359.765,-80.9136 361.081,-79.6339 361.909,-77.879 C362.787,-76.1241 363.311,-73.8573 363.482,-71.0787 C363.652,-68.3001 363.738,-64.8877 363.738,-60.8416 L363.738,-19.8203 L390.208,-19.8203 L390.208,-73.2723 C390.208,-83.2657 387.904,-90.9191 383.298,-96.2326 C378.691,-101.546 371.952,-104.203 363.079,-104.203 C358.302,-104.203 353.427,-102.935 348.455,-100.401 C343.483,-97.8656 338.364,-94.3802 333.1,-89.9441 C330.76,-94.6239 327.518,-98.1703 323.374,-100.583 C319.231,-102.996 314.453,-104.203 309.042,-104.203 C304.021,-104.203 299.439,-103.204 295.296,-101.205 C291.152,-99.2062 286.813,-96.4276 282.28,-92.869 L282.28,-101.936 L255.956,-101.936 L255.956,-19.8203 L282.28,-19.8203 L282.28,-78.0253 C284.23,-79.1952 286.423,-80.3042 288.861,-81.3523 C291.298,-82.4004 293.809,-82.9244 296.392,-82.9244 C299.61,-82.9244 302.108,-82.5222 303.887,-81.7179 C305.667,-80.9136 306.995,-79.6339 307.872,-77.879 C308.75,-76.1241 309.286,-73.8451 309.481,-71.0421 C309.676,-68.2391 309.774,-64.839 309.774,-60.8416 L309.774,-19.8203 L336.244,-19.8203 L336.244,-78.0253 Z M500.539,-54.0413 C500.539,-61.5485 498.552,-67.6542 494.579,-72.3583 C490.606,-77.0625 484.452,-80.7795 476.116,-83.5094 C471.875,-84.8743 467.914,-85.9468 464.234,-86.7267 C460.553,-87.5067 456.714,-88.3111 452.717,-89.1398 C446.623,-90.4072 442.48,-91.8087 440.286,-93.3443 C438.093,-94.8798 436.996,-97.0857 436.996,-99.9618 C436.996,-101.863 437.678,-103.557 439.043,-105.044 C440.408,-106.531 442.041,-107.64 443.942,-108.371 C446.087,-109.248 448.317,-109.845 450.633,-110.162 C452.949,-110.479 455.276,-110.638 457.616,-110.638 C464.246,-110.638 470.741,-109.455 477.103,-107.091 C483.465,-104.727 488.839,-101.79 493.226,-98.28 L496.224,-98.28 L496.224,-123.361 C491.106,-125.457 485.049,-127.2 478.054,-128.589 C471.058,-129.978 463.978,-130.673 456.812,-130.673 C442.529,-130.673 430.841,-127.468 421.75,-121.057 C412.658,-114.647 408.113,-106.372 408.113,-96.2326 C408.113,-88.6767 410.124,-82.3516 414.145,-77.2575 C418.167,-72.1633 424.76,-68.1294 433.925,-65.1558 C437.922,-63.8396 442.2,-62.755 446.758,-61.9019 C451.315,-61.0488 455.642,-60.1348 459.737,-59.1598 C463.636,-58.2336 466.598,-56.9053 468.621,-55.1747 C470.644,-53.4442 471.656,-51.3846 471.656,-48.9959 C471.656,-46.4123 470.961,-44.4624 469.572,-43.1462 C468.182,-41.83 466.415,-40.7332 464.27,-39.8557 C462.515,-39.1732 460.249,-38.6857 457.47,-38.3933 C454.691,-38.1008 452.449,-37.9545 450.743,-37.9545 C444.113,-37.9545 437.203,-39.1976 430.013,-41.6837 C422.822,-44.1699 416.327,-47.7285 410.526,-52.3595 L407.455,-52.3595 L407.455,-26.255 C413.304,-23.8177 419.581,-21.8068 426.283,-20.2225 C432.986,-18.6382 440.847,-17.846 449.865,-17.846 C465.465,-17.846 477.81,-21.1975 486.901,-27.9003 C495.993,-34.6031 500.539,-43.3168 500.539,-54.0413 Z M599.755,-60.8416 C599.755,-74.3448 595.843,-84.9962 588.019,-92.7959 C580.195,-100.596 569.117,-104.495 554.785,-104.495 C540.648,-104.495 529.619,-100.62 521.698,-92.869 C513.776,-85.1181 509.815,-74.4423 509.815,-60.8416 C509.815,-47.3385 513.752,-36.6993 521.624,-28.924 C529.497,-21.1487 540.551,-17.2611 554.785,-17.2611 C569.02,-17.2611 580.073,-21.1487 587.946,-28.924 C595.819,-36.6993 599.755,-47.3385 599.755,-60.8416 Z M567.362,-40.8794 C565.851,-38.9782 564.011,-37.6255 561.841,-36.8211 C559.672,-36.0168 557.393,-35.6146 555.005,-35.6146 C552.226,-35.6146 549.752,-36.0534 547.583,-36.9308 C545.413,-37.8083 543.549,-39.1976 541.989,-41.0988 C540.38,-43.0974 539.162,-45.742 538.333,-49.0325 C537.504,-52.323 537.09,-56.2106 537.09,-60.6954 C537.09,-65.7164 537.565,-69.8844 538.516,-73.1992 C539.466,-76.5141 540.746,-79.1221 542.355,-81.0233 C544.158,-83.0707 546.047,-84.4356 548.021,-85.1181 C549.996,-85.8005 552.25,-86.1418 554.785,-86.1418 C557.32,-86.1418 559.684,-85.7274 561.878,-84.8987 C564.072,-84.07 565.948,-82.6563 567.508,-80.6576 C569.068,-78.7077 570.287,-76.0997 571.165,-72.8336 C572.042,-69.5675 572.481,-65.5214 572.481,-60.6954 C572.481,-55.4794 572.054,-51.3967 571.201,-48.4475 C570.348,-45.4983 569.068,-42.9756 567.362,-40.8794 Z M697.948,-101.936 L671.624,-101.936 L671.624,-43.7311 C669.089,-42.1225 666.457,-40.9038 663.727,-40.0751 C660.997,-39.2463 658.511,-38.832 656.268,-38.832 C652.905,-38.832 650.285,-39.2463 648.408,-40.0751 C646.531,-40.9038 645.13,-42.22 644.203,-44.0236 C643.228,-45.8273 642.607,-48.1063 642.339,-50.8605 C642.071,-53.6148 641.937,-57.0637 641.937,-61.2073 L641.937,-101.936 L615.467,-101.936 L615.467,-48.4841 C615.467,-38.2958 617.916,-30.5936 622.815,-25.3776 C627.714,-20.1616 634.698,-17.5536 643.765,-17.5536 C649.371,-17.5536 654.197,-18.5163 658.243,-20.4419 C662.289,-22.3674 666.749,-25.1826 671.624,-28.8874 L671.624,-19.8203 L697.948,-19.8203 L697.948,-101.936 Z M779.835,-101.936 C778.957,-102.034 777.933,-102.107 776.763,-102.155 C775.593,-102.204 774.545,-102.229 773.619,-102.229 C770.012,-102.229 766.063,-101.412 761.773,-99.779 C757.484,-98.1459 752.438,-94.8433 746.637,-89.871 L746.637,-101.936 L720.313,-101.936 L720.313,-19.8203 L746.637,-19.8203 L746.637,-74.8079 C749.952,-75.9778 753.048,-76.8066 755.924,-77.294 C758.8,-77.7815 762.115,-78.0253 765.868,-78.0253 C767.526,-78.0253 769.597,-77.9278 772.084,-77.7328 C774.57,-77.5378 776.373,-77.2453 777.495,-76.8553 L779.835,-76.8553 L779.835,-101.936 Z M835.032,-17.6267 C840.491,-17.6267 845.476,-18.1995 849.985,-19.345 C854.494,-20.4906 858.821,-22.0384 862.964,-23.9883 L862.964,-46.4367 L859.235,-46.4367 C858.163,-45.4129 856.993,-44.3649 855.725,-43.2924 C854.458,-42.22 852.995,-41.1963 851.338,-40.2213 C849.583,-39.1976 847.377,-38.3079 844.72,-37.5524 C842.064,-36.7968 839.078,-36.419 835.763,-36.419 C828.646,-36.419 823.149,-38.4664 819.274,-42.5612 C815.399,-46.656 813.461,-52.652 813.461,-60.5492 C813.461,-68.2026 815.35,-74.2595 819.128,-78.7199 C822.906,-83.1803 828.305,-85.4106 835.324,-85.4106 C838.493,-85.4106 841.271,-85.0571 843.66,-84.3503 C846.049,-83.6434 848.242,-82.7538 850.241,-81.6813 C852.337,-80.5601 854.104,-79.4146 855.542,-78.2446 C856.98,-77.0747 858.211,-76.051 859.235,-75.1735 L862.964,-75.1735 L862.964,-97.6219 C858.869,-99.5718 854.458,-101.156 849.729,-102.375 C845.001,-103.594 839.833,-104.203 834.227,-104.203 C827.988,-104.203 821.967,-103.399 816.166,-101.79 C810.365,-100.181 805.247,-97.6463 800.811,-94.1852 C796.228,-90.5291 792.658,-85.9224 790.098,-80.3652 C787.539,-74.8079 786.26,-68.2026 786.26,-60.5492 C786.26,-53.2857 787.454,-46.9485 789.842,-41.5375 C792.231,-36.1265 795.595,-31.6417 799.933,-28.0831 C804.321,-24.5245 809.476,-21.8921 815.399,-20.1859 C821.321,-18.4798 827.866,-17.6267 835.032,-17.6267 Z M958.744,-65.2289 C958.744,-77.9034 955.38,-87.6164 948.653,-94.368 C941.926,-101.12 931.884,-104.495 918.527,-104.495 C904.049,-104.495 892.654,-100.535 884.343,-92.6131 C876.031,-84.6915 871.875,-73.9548 871.875,-60.4029 C871.875,-46.7048 876.263,-36.1509 885.037,-28.7412 C893.812,-21.3315 906.438,-17.6267 922.914,-17.6267 C929.3,-17.6267 935.126,-18.1629 940.39,-19.2354 C945.655,-20.3078 951.261,-22.0384 957.208,-24.427 L957.208,-45.5592 L954.284,-45.5592 C951.261,-43.268 947.142,-41.1231 941.926,-39.1245 C936.71,-37.1258 931.323,-36.1265 925.766,-36.1265 C916.991,-36.1265 910.35,-37.8327 905.84,-41.245 C901.331,-44.6574 898.882,-49.5809 898.492,-56.0156 L958.744,-56.0156 L958.744,-65.2289 Z M898.419,-71.4443 C898.809,-77.2453 900.637,-81.462 903.903,-84.0944 C907.169,-86.7267 911.337,-88.0429 916.407,-88.0429 C921.866,-88.0429 925.888,-86.6536 928.472,-83.875 C931.055,-81.0964 932.42,-76.9528 932.566,-71.4443 L898.419,-71.4443 Z " fill="#26898e" fill-opacity="1.00" />				<path d="M-199.349,18.7144 C-201.772,18.2784 -204.557,17.9272 -207.706,17.6607 C-210.855,17.3943 -214.367,17.2611 -218.242,17.2611 C-228.997,17.2611 -237.026,19.7559 -242.331,24.7456 C-247.635,29.7352 -250.288,37.2197 -250.288,47.1991 L-250.288,49.4517 L-261.478,49.4517 L-261.478,67.182 L-250.288,67.182 L-250.288,131.055 L-224.128,131.055 L-224.128,67.182 L-204.799,67.182 L-204.799,49.4517 L-225,49.4517 L-225,48.7977 C-225,43.5174 -224.092,39.9568 -222.275,38.1159 C-220.459,36.2751 -216.983,35.3547 -211.848,35.3547 C-209.716,35.3547 -207.718,35.5727 -205.853,36.0086 C-203.988,36.4446 -202.474,36.8322 -201.311,37.1713 L-199.349,37.1713 L-199.349,18.7144 Z M-105.975,90.2894 C-105.975,76.8706 -109.862,66.2858 -117.638,58.5348 C-125.413,50.7839 -136.421,46.9084 -150.664,46.9084 C-164.712,46.9084 -175.673,50.7597 -183.545,58.4621 C-191.417,66.1646 -195.353,76.7737 -195.353,90.2894 C-195.353,103.708 -191.441,114.281 -183.617,122.008 C-175.794,129.734 -164.809,133.598 -150.664,133.598 C-136.518,133.598 -125.534,129.734 -117.71,122.008 C-109.887,114.281 -105.975,103.708 -105.975,90.2894 Z M-138.165,110.127 C-139.667,112.016 -141.496,113.361 -143.652,114.16 C-145.807,114.959 -148.072,115.359 -150.446,115.359 C-153.207,115.359 -155.666,114.923 -157.821,114.051 C-159.977,113.179 -161.83,111.798 -163.38,109.909 C-164.979,107.923 -166.19,105.295 -167.013,102.025 C-167.837,98.7549 -168.249,94.8916 -168.249,90.4348 C-168.249,85.4451 -167.776,81.3032 -166.832,78.009 C-165.887,74.7149 -164.615,72.1232 -163.017,70.2339 C-161.224,68.1993 -159.347,66.8428 -157.385,66.1646 C-155.423,65.4864 -153.183,65.1473 -150.664,65.1473 C-148.145,65.1473 -145.795,65.5591 -143.615,66.3826 C-141.435,67.2062 -139.57,68.611 -138.02,70.5972 C-136.47,72.5349 -135.259,75.1267 -134.387,78.3724 C-133.515,81.6181 -133.079,85.6389 -133.079,90.4348 C-133.079,95.6182 -133.503,99.6753 -134.351,102.606 C-135.198,105.537 -136.47,108.044 -138.165,110.127 Z M-28.0779,49.4517 C-28.9499,49.3548 -29.9672,49.2821 -31.1298,49.2337 C-32.2924,49.1852 -33.334,49.161 -34.2544,49.161 C-37.8392,49.161 -41.7631,49.9724 -46.0261,51.5953 C-50.2892,53.2182 -55.303,56.5002 -61.0678,61.4414 L-61.0678,49.4517 L-87.2272,49.4517 L-87.2272,131.055 L-61.0678,131.055 L-61.0678,76.4104 C-57.7737,75.2478 -54.6975,74.4242 -51.8393,73.9398 C-48.9812,73.4554 -45.687,73.2132 -41.9569,73.2132 C-40.3098,73.2132 -38.251,73.31 -35.7804,73.5038 C-33.3098,73.6976 -31.5174,73.9882 -30.4032,74.3758 L-28.0779,74.3758 L-28.0779,49.4517 Z M99.086,22.8563 L66.968,22.8563 L27.0022,131.055 L55.1236,131.055 L62.6081,109.182 L102.719,109.182 L110.204,131.055 L139.052,131.055 L99.086,22.8563 Z M69.366,89.3448 L82.6637,50.5417 L95.9614,89.3448 L69.366,89.3448 Z M179.308,17.9877 L153.149,17.9877 L153.149,131.055 L179.308,131.055 L179.308,17.9877 Z M256.188,112.38 L254.008,112.38 C253.136,112.864 251.598,113.397 249.394,113.978 C247.189,114.56 245.409,114.85 244.053,114.85 C240.759,114.85 238.252,114.354 236.532,113.361 C234.812,112.368 233.613,111.023 232.935,109.328 C232.208,107.632 231.821,105.719 231.772,103.587 C231.724,101.456 231.7,98.9608 231.7,96.1026 L231.7,67.182 L256.188,67.182 L256.188,49.4517 L231.7,49.4517 L231.7,26.1262 L205.54,26.1262 L205.54,49.4517 L194.786,49.4517 L194.786,67.182 L205.54,67.182 L205.54,105.331 C205.54,115.31 208.023,122.359 212.988,126.477 C217.954,130.594 225.523,132.653 235.696,132.653 C240.25,132.653 244.101,132.447 247.25,132.036 C250.399,131.624 253.378,131.055 256.188,130.328 L256.188,112.38 Z M359.881,97.0473 C359.881,89.587 357.907,83.5195 353.959,78.8447 C350.01,74.1699 343.895,70.4761 335.611,67.7633 C331.396,66.4069 327.46,65.3411 323.803,64.566 C320.145,63.7909 316.33,62.9916 312.358,62.1681 C306.302,60.9085 302.185,59.5158 300.005,57.9898 C297.825,56.4639 296.735,54.2718 296.735,51.4136 C296.735,49.5243 297.413,47.8409 298.77,46.3634 C300.126,44.8859 301.749,43.7838 303.638,43.0572 C305.77,42.1852 307.986,41.5917 310.287,41.2769 C312.588,40.962 314.901,40.8045 317.226,40.8045 C323.815,40.8045 330.27,41.9793 336.592,44.3288 C342.914,46.6783 348.254,49.597 352.614,53.0849 L355.594,53.0849 L355.594,28.1608 C350.507,26.0778 344.488,24.3459 337.536,22.9653 C330.585,21.5846 323.548,20.8943 316.427,20.8943 C302.233,20.8943 290.619,24.0795 281.584,30.4498 C272.55,36.8201 268.032,45.0433 268.032,55.1196 C268.032,62.6283 270.03,68.9138 274.027,73.9761 C278.024,79.0385 284.576,83.0472 293.683,86.0022 C297.655,87.3102 301.906,88.388 306.436,89.2358 C310.965,90.0836 315.264,90.9919 319.334,91.9607 C323.209,92.8812 326.152,94.2012 328.163,95.921 C330.173,97.6407 331.178,99.6875 331.178,102.061 C331.178,104.629 330.488,106.566 329.107,107.874 C327.727,109.182 325.97,110.272 323.839,111.144 C322.095,111.823 319.842,112.307 317.081,112.598 C314.32,112.888 312.091,113.034 310.396,113.034 C303.808,113.034 296.941,111.798 289.795,109.328 C282.65,106.857 276.195,103.321 270.43,98.7186 L267.378,98.7186 L267.378,124.66 C273.191,127.082 279.428,129.08 286.089,130.655 C292.75,132.229 300.562,133.016 309.524,133.016 C325.026,133.016 337.294,129.686 346.329,123.025 C355.363,116.364 359.881,107.705 359.881,97.0473 Z M429.712,112.38 L427.532,112.38 C426.66,112.864 425.122,113.397 422.918,113.978 C420.714,114.56 418.933,114.85 417.577,114.85 C414.283,114.85 411.776,114.354 410.056,113.361 C408.336,112.368 407.137,111.023 406.459,109.328 C405.732,107.632 405.345,105.719 405.296,103.587 C405.248,101.456 405.224,98.9608 405.224,96.1026 L405.224,67.182 L429.712,67.182 L429.712,49.4517 L405.224,49.4517 L405.224,26.1262 L379.064,26.1262 L379.064,49.4517 L368.31,49.4517 L368.31,67.182 L379.064,67.182 L379.064,105.331 C379.064,115.31 381.547,122.359 386.513,126.477 C391.478,130.594 399.047,132.653 409.22,132.653 C413.774,132.653 417.625,132.447 420.774,132.036 C423.923,131.624 426.902,131.055 429.712,130.328 L429.712,112.38 Z M528.754,90.2894 C528.754,76.8706 524.867,66.2858 517.092,58.5348 C509.316,50.7839 498.308,46.9084 484.065,46.9084 C470.017,46.9084 459.056,50.7597 451.184,58.4621 C443.312,66.1646 439.376,76.7737 439.376,90.2894 C439.376,103.708 443.288,114.281 451.112,122.008 C458.935,129.734 469.92,133.598 484.065,133.598 C498.211,133.598 509.195,129.734 517.019,122.008 C524.843,114.281 528.754,103.708 528.754,90.2894 Z M496.564,110.127 C495.062,112.016 493.233,113.361 491.078,114.16 C488.922,114.959 486.657,115.359 484.283,115.359 C481.522,115.359 479.064,114.923 476.908,114.051 C474.752,113.179 472.899,111.798 471.349,109.909 C469.75,107.923 468.539,105.295 467.716,102.025 C466.892,98.7549 466.48,94.8916 466.48,90.4348 C466.48,85.4451 466.953,81.3032 467.897,78.009 C468.842,74.7149 470.114,72.1232 471.712,70.2339 C473.505,68.1993 475.382,66.8428 477.344,66.1646 C479.306,65.4864 481.546,65.1473 484.065,65.1473 C486.584,65.1473 488.934,65.5591 491.114,66.3826 C493.294,67.2062 495.159,68.611 496.709,70.5972 C498.259,72.5349 499.47,75.1267 500.342,78.3724 C501.214,81.6181 501.65,85.6389 501.65,90.4348 C501.65,95.6182 501.226,99.6753 500.379,102.606 C499.531,105.537 498.259,108.044 496.564,110.127 Z M606.651,49.4517 C605.779,49.3548 604.762,49.2821 603.599,49.2337 C602.437,49.1852 601.395,49.161 600.475,49.161 C596.89,49.161 592.966,49.9724 588.703,51.5953 C584.44,53.2182 579.426,56.5002 573.661,61.4414 L573.661,49.4517 L547.502,49.4517 L547.502,131.055 L573.661,131.055 L573.661,76.4104 C576.956,75.2478 580.032,74.4242 582.89,73.9398 C585.748,73.4554 589.042,73.2132 592.772,73.2132 C594.419,73.2132 596.478,73.31 598.949,73.5038 C601.419,73.6976 603.212,73.9882 604.326,74.3758 L606.651,74.3758 L606.651,49.4517 Z M701.843,85.9295 C701.843,73.3343 698.5,63.6819 691.815,56.9725 C685.13,50.2631 675.15,46.9084 661.877,46.9084 C647.489,46.9084 636.165,50.8444 627.906,58.7165 C619.646,66.5885 615.516,77.2582 615.516,90.7254 C615.516,104.338 619.876,114.826 628.596,122.189 C637.316,129.553 649.863,133.234 666.237,133.234 C672.583,133.234 678.372,132.702 683.604,131.636 C688.835,130.57 694.406,128.85 700.317,126.477 L700.317,105.476 L697.41,105.476 C694.406,107.753 690.313,109.885 685.13,111.871 C679.946,113.857 674.593,114.85 669.071,114.85 C660.351,114.85 653.75,113.155 649.269,109.764 C644.788,106.373 642.354,101.48 641.967,95.0853 L701.843,95.0853 L701.843,85.9295 Z M641.894,79.753 C642.281,73.9882 644.098,69.7979 647.344,67.182 C650.589,64.566 654.731,63.258 659.769,63.258 C665.195,63.258 669.192,64.6387 671.759,67.3999 C674.327,70.1612 675.683,74.2789 675.828,79.753 L641.894,79.753 Z " fill="#72aeac" fill-opacity="1.00" />			</g>		</g>	</svg>